<svg xmlns="http://www.w3.org/2000/svg" viewBox="0 0 128 100"><g><path d="M56.4,56.1V0H0v56.4h26c0,0.1,0,0.2,0,0.3c0.4,5.9-0.7,11.5-3.9,16.5c-3.4,5.4-8.5,8.9-14.3,11.2c-0.9,0.3-1.6,0.6-2.3,0.7  c-1.3,0.4-2.1,0.6-2.1,0.6c0,4.6,0.1,9.2,0,13.8C18.1,101.5,33,96,43.2,85.2c6.7-7.1,11-16.1,12.7-25.6c0.1-0.5,0.2-0.9,0.2-1.3  c0.1-0.8,0.3-1.4,0.3-1.9C56.4,56.3,56.5,56.2,56.4,56.1L56.4,56.1z"></path><path d="M127.8,56.1V0H71.4v56.4h26c0,0.1,0,0.2,0,0.3c0.4,5.9-0.7,11.5-3.9,16.5c-3.4,5.4-8.5,8.9-14.3,11.2  c-0.9,0.3-1.6,0.6-2.3,0.7c-1.3,0.4-2.1,0.6-2.1,0.6c0,4.6,0.1,9.2,0,13.8c14.7,1.9,29.6-3.6,39.8-14.4c6.7-7.1,11-16.1,12.7-25.6  c0.1-0.5,0.2-0.9,0.2-1.3c0.1-0.8,0.3-1.4,0.3-1.9C127.8,56.3,127.8,56.2,127.8,56.1L127.8,56.1z"></path></g></svg>