<svg fill="#FFFFFF" xmlns="http://www.w3.org/2000/svg" xmlns:xlink="http://www.w3.org/1999/xlink" x="0px" y="0px" viewBox="0 0 200 90" style="enable-background:new 0 0 200 90;" xml:space="preserve"><g>	<path d="M57.7,7.5c-12.2,0-22.2,9.9-22.2,22.2s9.9,22.2,22.2,22.2S79.9,42,79.9,29.7S70,7.5,57.7,7.5z M57.7,47.2  c-9.6,0-17.5-7.9-17.5-17.5s7.9-17.5,17.5-17.5S75.2,20,75.2,29.7C75.2,39.3,67.4,47.2,57.7,47.2z"></path>	<path d="M85.9,7.5c-12.3,0-22.2,9.9-22.2,22.2s9.9,22.2,22.2,22.2S108,42,108,29.7C108.1,17.4,98.1,7.5,85.9,7.5z M85.9,47.2  c-9.6,0-17.5-7.9-17.5-17.5s7.9-17.5,17.5-17.5s17.5,7.9,17.5,17.5S95.6,47.2,85.9,47.2z"></path>	<path d="M114.1,7.5C101.9,7.5,92,17.4,92,29.7s9.9,22.2,22.2,22.2s22.2-9.9,22.2-22.2S126.3,7.5,114.1,7.5z M114.1,47.2  c-9.6,0-17.5-7.9-17.5-17.5s7.9-17.5,17.5-17.5s17.5,7.9,17.5,17.5S123.8,47.2,114.1,47.2z"></path>	<path d="M142.3,7.5c-12.3,0-22.2,9.9-22.2,22.2s9.9,22.2,22.2,22.2s22.2-9.9,22.2-22.2S154.5,7.5,142.3,7.5z M142.3,47.2  c-9.6,0-17.5-7.9-17.5-17.5s7.9-17.5,17.5-17.5s17.5,7.9,17.5,17.5S151.9,47.2,142.3,47.2z"></path>	<path d="M131.2,60.3h-4.7v21.8h4.7V60.3z"></path>	<path d="M141.8,60.2h-4.4v4.2h4.4V60.2z"></path>	<path d="M141.8,66.7h-4.4v15.4h4.4V66.7z"></path>	<path d="M107,66.7h-4.7v15.5h4.7V66.7z"></path>	<path d="M93.5,82.1l-4.7-7v-8.5h4.7V82.1z"></path>	<path d="M85.6,82.1h-4.9L69.4,60.2h4.9L85.6,82.1z"></path>	<path d="M58.2,82.1h4.9l11.2-21.9h-4.9L58.2,82.1z"></path>	<path d="M64.8,73.8v3.8h15.5v-3.8H64.8z"></path>	<path d="M93.4,76.6c0,0,1.7,4.8,9.1,1v2.9c0,0-13.3,7.2-13.6-5.4c-0.3-12.5,2.5,0.5,2.6,0.5C91.6,75.7,93.4,76.6,93.4,76.6  L93.4,76.6z"></path>	<path d="M126.6,77.6c-1.4,0.8-3.2,1.3-4.9,1.3c-3.4,0-5.2-2.1-5.2-4.5c0-2.4,1.8-4.5,5.2-4.5c1.8,0,3.4,0.5,4.9,1.3v-4  c-1.9-0.6-3.8-1-5.7-1c-6.1,0-9.4,3.8-9.4,8.1c0,4.2,3.2,8.1,9.4,8.1c1.9,0,3.8-0.4,5.7-1V77.6z"></path></g></svg>