<svg fill="#FFFFFF" xmlns="http://www.w3.org/2000/svg" xmlns:xlink="http://www.w3.org/1999/xlink" x="0px" y="0px" viewBox="0 0 200 90" style="enable-background:new 0 0 200 90;" xml:space="preserve"><style type="text/css">	.logo-color{fill:#E4E4E4;}</style><g>	<path d="M100,2.5C76.6,2.5,57.5,21.6,57.5,45S76.6,87.5,100,87.5s42.5-19.1,42.5-42.5S123.4,2.5,100,2.5z M140.3,45  c0,22.2-18.1,40.3-40.3,40.3S59.7,67.2,59.7,45S77.8,4.7,100,4.7S140.3,22.8,140.3,45z"></path>	<path d="M100,24.8V45H79.8C79.8,33.9,88.9,24.8,100,24.8z"></path>	<path d="M120.2,45c0,11.1-9,20.2-20.2,20.2V45H120.2z"></path>	<path class="logo-color" d="M100,45v20.2c-11.1,0-20.2-9-20.2-20.2H100z"></path>	<path class="logo-color" d="M120.2,45H100V24.8C111.1,24.8,120.2,33.9,120.2,45z"></path>	<path d="M100,67.3c-12.3,0-22.3-10-22.3-22.3s10-22.3,22.3-22.3s22.3,10,22.3,22.3S112.3,67.3,100,67.3z M100,24.8  c-11.1,0-20.2,9-20.2,20.2s9,20.2,20.2,20.2s20.2-9,20.2-20.2S111.1,24.8,100,24.8z"></path>	<path d="M80.6,21.9c-0.8-0.8-2-1.1-3-0.9c-0.2-0.5-0.5-1-0.9-1.4c-1.4-1.3-3.6-1.2-4.9,0.2l-4.3,4.6L67,25l-1.3,1.5l1.7,1.6  l1.5,1.4l1.8,1.7l3.3,3.1l1.8-2.1l0,0l5-5.4C82.1,25.4,82,23.2,80.6,21.9L80.6,21.9z M73.4,21.7c0.4-0.4,1-0.4,1.4,0  c0.2,0.2,0.3,0.4,0.3,0.7c0,0.1,0,0.3-0.1,0.4l-4.3,4.7l-1.4-1.3L73.4,21.7L73.4,21.7z M78.8,25.3l-4.9,5.2l-1.4-1.3l4.3-4.6  c0-0.1,0.1-0.1,0.1-0.2l0.4-0.4c0.4-0.4,1-0.4,1.4,0C79.1,24.3,79.1,24.9,78.8,25.3L78.8,25.3z"></path>	<path d="M106.2,9.6l-3.9-0.4L99.7,16L97,9.3l-3.9,0.4l-0.4,11.4l2.8-0.4l0.2-8.2l2.8,6.3h1.1h1.1l2.8-6.3l0.2,8.2l2.8,0.4  L106.2,9.6z"></path>	<path d="M117.4,25.9l2.4,2l6-3.3l-3.2,6.1l2,2.5l9.6-6l-1.8-2.2l-6.5,4.5l3-6l-1.9-1.8l-5.9,3l4.5-6.5l-2.2-1.7L117.4,25.9z"></path></g></svg>