<svg fill="#FFFFFF" xmlns="http://www.w3.org/2000/svg" xmlns:xlink="http://www.w3.org/1999/xlink" x="0px" y="0px" viewBox="0 0 200 90" style="enable-background:new 0 0 200 90;" xml:space="preserve"><style type="text/css">	.logo-color2-1{fill:#FFFFFF;}	.logo-color2-2{fill:#050B20;}</style><g>	<path class="logo-color2-1" d="M191.8,45c0,3.7-2.3,7.5-6.7,11c-4.6,3.7-11.1,7-19.5,9.8c-17.5,5.9-40.8,9.2-65.5,9.2  c-24.8,0-48.1-3.3-65.5-9.2c-8.4-2.9-15-6.2-19.5-9.8c-4.4-3.6-6.7-7.3-6.7-11s2.3-7.5,6.7-11c4.6-3.7,11.1-7,19.5-9.8  c17.5-5.9,40.8-9.2,65.5-9.2c24.8,0,48.1,3.3,65.5,9.2c8.4,2.9,15,6.2,19.5,9.8C189.5,37.5,191.8,41.3,191.8,45z"></path>	<path class="logo-color2-2" d="M156.7,35.7c-0.1,0-0.1,0-0.2,0c-1.6,0-3.2,0-4.8,0c-0.4,0-0.7,0.1-0.8,0.5c-2.8,4.4-5.7,8.8-8.6,13.2  c-0.2,0.2-0.5,0.1-0.5-0.1c-0.5-2.3-2.9-3.6-5.1-3.6c-5.8,0-9.7,5.3-14,8.5c-0.9,0.7-1.8,1.3-2.8,1.8c-4.9,2.1-6-3.3-3-6.3  c0.1-0.1,0.4,0,0.4,0.2c0,0.1,0,0.2,0,0.4c-0.2,1.9,1.6,3.3,3.5,2.8c1.5-0.5,2.4-1.6,2.8-3.1c0.6-2.1-0.8-4.1-2.7-4.6  c-2.9-0.7-5.8,1.3-7.4,3.6c-0.2,0.2-0.5,0.1-0.5-0.2c0,0,0-0.1,0-0.1c-0.2-1.8-0.4-3.4-2.4-3.9c-1.4-0.3-2.8,0-4,0.6  c-2.9,1.4-4.7,4.1-7,6.2c-0.1-0.3-0.1-0.4-0.1-0.6c-0.2-1.6-0.4-3.1-1.2-4.5c-0.4-0.7-1-0.9-1.7-0.5c-0.5,0.2-0.9,0.5-1.3,0.8  c-0.7,0.4-0.8,0.8-0.6,1.5c1.6,5.3-0.8,12.7-6.8,13.9c-1.7,0.2-3.1-0.6-3.7-2.2c-0.7-2,0-4.2,1-6c1.6-2.8,4.4-4.6,7.4-5.8  c0.6-0.3,0.7-0.4,0.5-1c-0.1-0.3-0.2-0.6-0.3-0.9c-0.2-0.4-0.5-0.7-0.9-0.7c-0.4,0-0.8,0-1.2,0c-5.9,0.8-10.5,5.4-12.5,10.9  c-0.7,1.8-1.7,3.2-3.1,4.4c-0.5,0.4-0.9,0.8-1.4,1.3c-0.3,0.3-0.4,0.5-0.1,0.9c0.3,0.4,0.6,0.9,0.9,1.3c0.2,0.2,0.4,0.3,0.7,0.2  c1.2-0.7,2.2-1.7,3.2-2.7c0.3-0.3,0.7-0.1,0.8,0.3c1.1,3.5,4.7,5.4,8.2,4.8c4.3-0.6,7.6-4,10-7.4c2.5-3.3,6.1-8.5,9.9-10.1  c0.4-0.2,0.9-0.3,1.3,0.1c0.4,0.4,0.3,0.9,0.2,1.3c-0.2,0.5-0.4,1-0.6,1.4c-2.7,4.7-5.6,9.2-8.4,13.9c-0.1,0.3,0.1,0.5,0.3,0.5  c1.3,0,2.7,0,4,0c1,0,0.9,0.1,1.6-0.9c2.3-3.6,4.5-7.1,6.9-10.6c0.2,0.6,0.2,1.1,0.3,1.7c0.6,2.7,3.3,3.9,5.8,3.2  c1.2-0.3,2.4-0.8,3.5-1.5c0,0,0.1-0.1,0.1-0.1c0.3-0.2,0.6,0.1,0.5,0.4c-1,6,3.6,10.3,9.3,7.4c1.2-0.6,2.3-1.4,3.3-2.3  c0.3-0.2,0.7-0.1,0.7,0.2c0,0.1,0,0.2,0.1,0.3c0.5,2.6,3,3.5,5.4,2.9c5.3-1.4,8.8-6,12.4-9.9c0.3-0.4,0.3-0.5,0-0.8  c-0.3-0.3-0.6-0.5-0.9-0.8c-0.4-0.3-0.6-0.3-0.9,0c-2,1.8-7.2,7.9-9.8,7.6c-0.8-0.1-1.3-0.7-1.1-1.5c0.1-0.3,0.2-0.7,0.4-1  c0.3-0.5,0.5-1,0.9-1.5c4.8-7.8,9.9-15.5,14.8-23.3C156.9,35.9,156.9,35.8,156.7,35.7L156.7,35.7z M138.8,51.5  c-0.1,0.7-0.3,1.3-0.5,2c-0.3,0.8-0.3,0.8,0.3,1.3c-1.4,3.1-4.2,6.8-7.6,7.7c-0.9,0.2-2.1,0-2.5-1c-0.3-0.6-0.3-1.1-0.3-1.8  c0.3-3.6,2.6-6.8,5.4-9.1c0.8-0.7,1.7-1.2,2.8-1.3C137.7,49.1,138.9,50,138.8,51.5L138.8,51.5z"></path>	<path class="logo-color2-2" d="M80.1,42.4c1.2-0.1,6.3-0.6,7.8-0.7c0.4,0,0.8,0.1,1.1,0.4c0.6,0.7,1.4,1.2,2.2,1.6c0.2,0.1,0.4,0.2,0.7,0.2  c0.4,0,0.8-0.3,0.9-0.7c0.1-0.4-0.2-0.6-0.4-0.8c-0.3-0.2-1.2-1-1.4-1.2c0.2-0.1,0.4-0.2,0.6-0.2c1.8-0.7,3.1-2.1,3.3-4.1  c0.3-3.2-3.4-4-5.4-2c-1.4,1.3-1.7,2.8-1.6,4.7c-0.1,0-0.2,0.1-0.2,0.1c-2,0.1-3.9,0.2-5.9,0.3c-0.3,0-0.4-0.3-0.3-0.5  c2.4-4.1,6.1-7.2,9.8-10c1-0.8,2.3-1,3.6-0.7c10.2,2.5,22.6,7.6,32,0.3c0.4-0.4,0.8-0.9,1.2-1.4c0.3-0.5,0.5-1.1,0.4-1.8  c-0.1-0.7-0.7-1.1-1.3-1c-0.2,0-0.4,0.1-0.6,0.1c-7.7,1.7-15.6,1.8-23.4,0.8c-11.3-1.3-22.7-4.8-34.1-2.7c-5,1-10.1,3.4-12.7,8  c-2.6,4.6-0.9,11.1,5,11.4c5.5,0.2,9.8-4.4,11.8-9.1c0.2-0.4,0.2-0.9,0.1-1.4c-0.2-0.7-0.9-0.8-1.4-0.3c-0.1,0.1-0.2,0.3-0.4,0.5  c-1.7,2.4-4.9,5.1-8,4.8c-1.9-0.2-2.8-1.9-2.5-3.7c0.6-3.3,3.5-5.4,6.5-6.5c7.1-2.5,14.7-0.9,21.8,0.6c0.1,0.1,0.2,0.2,0,0.3  c-0.1,0.1-0.3,0.2-0.4,0.2c-1.6,0.8-3.1,1.9-4.4,3c-2,1.8-4,3.6-5.5,5.8c-0.8,1.1-1.6,2.1-2.4,3.2c-0.3,0.4-0.6,0.5-1,0.6  c-1.5,0.3-3,0.5-4.4,0.9c-1.6,0.4-3.1,1-4.5,2c-0.3,0.2-0.6,0.5-0.8,0.9c-0.2,0.9,0.4,1.6,1.3,1.3c0.2-0.1,0.4-0.2,0.6-0.4  c1.6-1.1,3.3-1.8,5.3-1.9c0.2,0,0.4,0.3,0.3,0.5c-4.5,6-11.5,16.6-19.8,15.9c-3.8-0.4-5.3-3.8-4.6-6.6c0.7-2.6,2.9-4.3,5.2-5.6  c0.7-0.4,0.9-1.1,0.4-1.8c-0.2-0.4-0.6-0.6-1-0.6c-0.3,0-0.6-0.1-0.9,0c-1.2,0.1-2.3,0.6-3.4,1.2c-4.5,2.6-6.7,7.3-5.7,12.3  c1.3,7.7,10.6,9.5,16.8,6.5c8.2-3.8,13.9-14.4,18.6-21.9C79.1,42.8,79.5,42.5,80.1,42.4L80.1,42.4z M91.1,35.9  c0.6-0.5,1.6-0.6,1.6,0.6c-0.2,1.1-1,2.1-2.1,2.4C90.1,39.1,90,39,90,38.6C89.9,37.5,90.3,36.6,91.1,35.9z"></path>	<path class="logo-color2-2" d="M193,37.7c-1.3-2.2-3.3-4.4-5.8-6.4c-4.9-3.9-11.8-7.4-20.6-10.4c-8.7-3-18.8-5.3-30-6.9  c-11.6-1.7-23.9-2.5-36.6-2.5c-12.7,0-25,0.8-36.6,2.5c-11.2,1.6-21.3,3.9-30,6.9c-8.8,3-15.7,6.5-20.6,10.4  c-1.8,1.5-3.3,3-4.6,4.5c-0.5,0.6-0.9,1.2-1.3,1.9c-1.4,2.4-2.1,4.8-2.1,7.3c0,2.5,0.7,4.9,2.1,7.3c0.4,0.6,0.8,1.3,1.3,1.9  c1.2,1.6,2.7,3.1,4.6,4.5c4.9,3.9,11.8,7.4,20.6,10.4c8.7,3,18.8,5.3,30,6.9c11.6,1.7,23.9,2.5,36.6,2.5c12.7,0,25-0.8,36.6-2.5  c11.2-1.6,21.3-3.9,30-6.9c8.8-3,15.7-6.5,20.6-10.4c2.5-2,4.5-4.2,5.8-6.4c1.4-2.4,2.1-4.8,2.1-7.3  C195.2,42.5,194.5,40.1,193,37.7z M185.1,56c-4.6,3.7-11.1,7-19.5,9.8c-17.5,5.9-40.8,9.2-65.5,9.2c-24.8,0-48.1-3.3-65.5-9.2  c-8.4-2.9-15-6.2-19.5-9.8c-4.4-3.6-6.7-7.3-6.7-11c0-3.7,2.3-7.5,6.7-11c4.6-3.7,11.1-7,19.5-9.8c17.5-5.9,40.8-9.2,65.5-9.2  c24.8,0,48.1,3.3,65.5,9.2c8.4,2.9,15,6.2,19.5,9.8c4.4,3.6,6.7,7.3,6.7,11C191.8,48.7,189.5,52.5,185.1,56z"></path></g></svg>