<svg fill="#FFFFFF" xmlns="http://www.w3.org/2000/svg" xmlns:xlink="http://www.w3.org/1999/xlink" x="0px" y="0px" viewBox="0 0 200 90" style="enable-background:new 0 0 200 90;" xml:space="preserve"><g>	<path d="M100,3C82.7,3,68.7,17,68.7,34.3c0,17.3,14,31.3,31.3,31.3c17.3,0,31.3-14,31.3-31.3C131.3,17,117.3,3,100,3z M126.4,34.3  c0,4.8-1.3,9.2-3.5,13.1l-19.1-14.9l-3.4-24.6C114.8,8.1,126.4,19.8,126.4,34.3L126.4,34.3z M99.6,7.9l-3.4,24.6L77,47.4  c-2.2-3.9-3.5-8.3-3.5-13.1C73.6,19.9,85.2,8.1,99.6,7.9L99.6,7.9z M100,60.8c-9.3,0-17.5-4.8-22.2-12.1L100,39l22.2,9.7  C117.5,55.9,109.3,60.8,100,60.8z"></path>	<path d="M100.1,8.4L96.6,33L77.5,47.9l22.5-14L100.1,8.4z"></path>	<path d="M122.5,47.9l-22.5-14l3.3-0.9L122.5,47.9z"></path>	<path d="M102,4.5c3.1,0,6.1,0.4,8.9,1.3c-3.1-1-6.5-1.6-9.9-1.6c-17.3,0-31.3,14-31.3,31.3c0,0.2,0,0.5,0,0.7  C70,18.6,84.4,4.5,102,4.5z"></path>	<path d="M47.4,71.3L43.1,83L39,71.2h-4.4v0.6h1.2c0.4,0,0.7,0.3,0.7,0.7l-0.4,13c0,0.4-0.3,0.7-0.7,0.7h-2v0.6H39v-0.6h-1.5  c-0.4,0-0.7-0.3-0.7-0.7l0.4-13.4l4.8,13.7l0.1,0.4l0.1,0.3h0.3l0.9-2.4l4.1-11.3v12.8c0,0.4-0.3,0.7-0.7,0.7h-1.2v0.6h5.7v-0.6  h-1.2c-0.4,0-0.7-0.3-0.7-0.7V72.6c0-0.4,0.3-0.7,0.7-0.7h1.2v-0.6L47.4,71.3L47.4,71.3z"></path>	<path d="M56.5,75.5c-2.4,0-4.4,2-4.4,4.4v2.7c0,2.4,2,4.4,4.4,4.4c2.2,0,4.1-1.7,4.3-3.8h-1c-0.2,1.1-0.8,3-3,3  c-3.1,0-3.1-5.2-3.1-5.2h7.1v-1.1C60.9,77.5,58.9,75.5,56.5,75.5L56.5,75.5z M56.3,80.2h-2.5c0-4,2.5-3.9,2.5-3.9s2.5-0.1,2.5,3.9  H56.3z"></path>	<path d="M67.6,75.6c-1.5,0.1-2.1,0.6-3,1.9c0,0,0,0.1-0.1,0.1c-0.1-1.1-0.2-2.1-0.2-2.1c-0.5,0.3-3,0.5-3,0.5v0.4h0.8  c0.4,0,0.7,0.3,0.7,0.7v8.4c0,0.4-0.3,0.7-0.7,0.7H61v0.6h5.7v-0.6h-1.2c-0.4,0-0.7-0.3-0.7-0.7V79c0,0,0.9-3.5,2.6-2.1  c0,0,0.1,0.5,0,0.8c-0.1,0.3,0.2,0.9,0.8,0.9c0.5,0,1-0.1,1.1-0.7C69.4,77.3,69.1,75.6,67.6,75.6L67.6,75.6z"></path>	<path d="M73.6,86.2C70.5,86.2,71,81,71,81s0-1.3,0.3-2.3c0,0,0,0,0,0c0.5-2.2,1.9-2.4,2.2-2.4c0,0,2.4-0.2,2.9,2.9H77v-3.8h-0.4  L76,76.5c0,0-0.9-1-2.5-1c-2.3,0.1-4.2,2-4.2,4.4v2.7c0,2.4,2,4.4,4.4,4.4c2.2,0,3.4-1.7,3.6-3.8h-1C76.2,84.3,75.9,86.2,73.6,86.2  L73.6,86.2z"></path>	<path d="M83.1,75.5c-2.4,0-4.4,2-4.4,4.4v2.7c0,2.4,2,4.4,4.4,4.4c2.2,0,4.1-1.7,4.3-3.8h-1c-0.2,1.1-0.8,3-3,3  c-3.1,0-3.1-5.2-3.1-5.2h7.1v-1.1C87.5,77.5,85.5,75.5,83.1,75.5L83.1,75.5z M82.9,80.2h-2.5c0-4,2.5-3.9,2.5-3.9s2.5-0.1,2.5,3.9  H82.9z"></path>	<path d="M98.8,86c-0.4,0-0.6-0.2-0.8-0.3c-0.1-0.1-0.2-0.3-0.2-0.5V71c-0.5,0.3-3.4,0.6-3.4,0.6V72h1.4v4.5l0,0.1c0,0-0.9-1-2.5-1  c-2.3,0.1-4.2,2-4.2,4.4v2.7c0,2.4,1.9,4.4,4.3,4.4c1.2,0,2.2-0.5,2.8-1.3c0.1,0.6,0.4,1.3,0.4,1.3c1.1-0.4,2.9-0.6,2.9-0.6l0-0.4  C99.4,86,99.3,86,98.8,86L98.8,86z M93.4,86.2c-3.1,0-2.7-5.2-2.7-5.2s0-1.3,0.3-2.3c0,0,0,0,0,0c0.5-2.2,1.9-2.4,2.2-2.4  c0,0,1.7-0.1,2.5,1.5v6.7C95.5,85.4,94.8,86.2,93.4,86.2L93.4,86.2z"></path>	<path d="M104.9,75.5c-2.4,0-4.4,2-4.4,4.4v2.7c0,2.4,2,4.4,4.4,4.4c2.2,0,4.1-1.7,4.3-3.8h-1c-0.2,1.1-0.8,3-3,3  c-3.1,0-3.1-5.2-3.1-5.2h7.1v-1.1C109.3,77.5,107.4,75.5,104.9,75.5L104.9,75.5z M104.8,80.2h-2.5c0-4,2.5-3.9,2.5-3.9  s2.5-0.1,2.5,3.9H104.8z"></path>	<path d="M116.8,81c-1.4-0.5-2.3-1-3-1.4c-0.9-0.6-1.2-1.7-0.6-2.6c0.3-0.5,0.8-0.8,1.7-0.8c2.4,0.1,2.5,2.7,2.5,2.7l0.5,0l0-3.5  h-0.4l-0.4,0.8c-1-0.7-2.5-0.7-3.6-0.4c-1.1,0.3-2.5,1.8-2.1,3.5c0.4,1.7,2.5,2.2,4.3,3c1.8,0.8,2.3,3.2-0.6,3.8  c-3,0.6-3.4-3-3.4-3h-0.5V87h0.4l0.5-0.9C119.2,89.5,119.8,82.1,116.8,81L116.8,81z"></path>	<path d="M123.7,80.1h-4.3v1h4.3V80.1z"></path>	<path d="M132.2,78.6c1.2-0.7,2-1.9,2-3.4c0-2.1-1.7-3.9-3.9-3.9h-6.7v0.6h1.2c0.4,0,0.7,0.3,0.7,0.7v12.9c0,0.4-0.3,0.7-0.7,0.7  h-1.2v0.6h7.5c2.1,0,3.9-1.9,3.9-4.2C135.1,80.7,133.8,79.1,132.2,78.6L132.2,78.6z M129.4,71.9c1.5,0,2.8,1.2,2.8,2.8v1  c0,1.4-1,2.6-2.4,2.8h-2.3v-5.8c0-0.4,0.3-0.7,0.7-0.7H129.4z M133.1,83.2c0,1.7-1.2,3-2.8,3h-2.1c-0.4,0-0.7-0.3-0.7-0.7v-6.4h2.8  c1.5,0,2.8,1.3,2.8,3V83.2L133.1,83.2z"></path>	<path d="M141,75.5c-2.4,0-4.4,2-4.4,4.4v2.7c0,2.4,2,4.4,4.4,4.4c2.2,0,4.1-1.7,4.3-3.8h-1c-0.2,1.1-0.8,3-3,3  c-3.1,0-3.1-5.2-3.1-5.2h7.1v-1.1C145.3,77.5,143.4,75.5,141,75.5L141,75.5z M140.8,80.2h-2.5c0-4,2.5-3.9,2.5-3.9s2.5-0.1,2.5,3.9  H140.8z"></path>	<path d="M155.8,78.2c-0.5-3.3-4.4-2.5-4.4-2.5c-0.9,0.2-1.5,0.8-2.1,1.8c0,0,0,0.1-0.1,0.1c-0.1-1.1-0.2-2.1-0.2-2.1  c-0.5,0.3-3,0.5-3,0.5v0.4h1.5v9.1c0,0.4-0.3,0.7-0.7,0.7h-1.2v0.6h5.7v-0.6h-1.2c-0.4,0-0.7-0.3-0.7-0.7V79c0,0,0.7-2.5,1.9-2.4  c0,0,2-0.4,2.4,1.7v7.2c0,0.4-0.3,0.7-0.7,0.7h-1.2v0.6h5.7v-0.6h-1.2c-0.4,0-0.7-0.3-0.7-0.7L155.8,78.2L155.8,78.2z"></path>	<path d="M166.6,76L166.6,76l-7.8-0.1l-0.6,3.3h0.5c0,0,0.4-2.4,2.5-2.8h3.2l-6.3,10.3h7.8l0.6-3.3H166c0,0-0.4,2.4-2.5,2.8h-3.2  L166.6,76L166.6,76z"></path></g></svg>