<svg fill="#FFFFFF" xmlns="http://www.w3.org/2000/svg" xmlns:xlink="http://www.w3.org/1999/xlink" x="0px" y="0px" viewBox="0 0 200 90" style="enable-background:new 0 0 200 90;" xml:space="preserve"><g>	<path d="M100,68.4c-18.2,0-33-14.8-33-33s14.8-33,33-33s33,14.8,33,33S118.2,68.4,100,68.4L100,68.4z M100,64.7  c2.8,0,5.6-0.4,8.2-1.2L100,45.3l-8.2,18.2C94.4,64.3,97.2,64.7,100,64.7z M113.5,61.4c9.4-4.9,15.7-14.7,15.7-25.9  c0-2.8-0.4-5.5-1.1-8.1L113.5,61.4L113.5,61.4z M107.7,7.2c-2.5-0.6-5-1-7.7-1c-2.7,0-5.3,0.3-7.7,1l7.7,18.5L107.7,7.2L107.7,7.2z   M85.2,10.2c-3.5,2.1-6.6,4.9-9.1,8.2l13.1,31.2l5.9-13.2l4.8,0.1l4.8-0.1l5.9,13.2l13.1-31.2c-2.4-3.3-5.4-6.1-9-8.2l-9.8,23.5H95  L85.2,10.2L85.2,10.2z M70.8,35.5c0,11.2,6.4,21,15.7,25.9l-14.6-34C71.2,30,70.8,32.7,70.8,35.5z"></path>	<path d="M65.4,73h1.7l-3.7,11.3h-1.5L58.2,73h1.7l2.7,8.8L65.4,73z"></path>	<path d="M73.8,77.7c0.3,0.5,0.4,1.2,0.4,1.9v1.3c0,0.8-0.1,1.4-0.4,1.9c-0.2,0.5-0.6,0.9-1.1,1.2s-1.1,0.4-1.8,0.4  s-1.3-0.1-1.8-0.4c-0.5-0.3-0.8-0.7-1.1-1.2c-0.3-0.5-0.4-1.2-0.4-1.9v-1.3c0-0.8,0.1-1.4,0.4-1.9c0.2-0.5,0.6-0.9,1.1-1.2  s1.1-0.4,1.8-0.4s1.3,0.1,1.8,0.4C73.2,76.7,73.6,77.1,73.8,77.7z M72.7,79.6c0-0.6-0.2-1.1-0.5-1.4s-0.7-0.5-1.3-0.5  s-1,0.2-1.3,0.5s-0.5,0.8-0.5,1.4v1.3c0,0.7,0.2,1.2,0.5,1.5s0.7,0.5,1.3,0.5s1-0.2,1.3-0.5c0.3-0.4,0.5-0.9,0.5-1.5V79.6z"></path>	<path d="M78.6,82.8h0.7v1.5h-0.9c-0.6,0-1.1-0.2-1.4-0.6s-0.5-0.9-0.5-1.6v-9.2h1.6v9.2c0,0.2,0,0.4,0.1,0.5  C78.3,82.7,78.4,82.8,78.6,82.8z"></path>	<path d="M87.7,75.4l-3.9,4.4l3.9,4.4h-2.5l-2.6-3v3H81V72.9h1.6v5.6l2.6-3.1H87.7z"></path>	<path d="M94.3,79.6c0.4,0.1,0.7,0.4,1.3,0.7c0.3,0.4,0.4,0.9,0.4,1.5c0,0.5-0.2,1-0.4,1.4s-0.6,0.7-1.1,0.9  c-0.5,0.2-1.1,0.3-1.9,0.3c-0.4,0-0.9,0-1.3-0.1c-0.4-0.1-0.8-0.2-1.2-0.4s-0.7-0.4-1-0.7L90,82c0.4,0.3,0.9,0.5,1.3,0.7  c0.5,0.1,0.9,0.2,1.3,0.2c0.6,0,1.1-0.1,1.4-0.3c0.3-0.2,0.5-0.5,0.5-0.9c0-0.3-0.1-0.5-0.3-0.6c-0.1-0.2-0.3-0.3-0.6-0.3  c-0.3,0-0.6-0.1-1.1-0.1h-0.1h-0.1c-0.1,0-0.1,0-0.1,0c-0.1,0-0.1,0-0.1,0c-0.5,0-0.9-0.1-1.3-0.2s-0.7-0.3-0.9-0.6  c-0.3-0.3-0.4-0.8-0.4-1.3s0.1-1,0.3-1.4c0.2-0.3,0.5-0.6,1-0.8c0.4-0.2,1-0.3,1.7-0.3c0.4,0,0.8,0,1.2,0.1c0.4,0,0.8,0.1,1.1,0.3  s0.7,0.4,1,0.6l-1,1.2c-0.4-0.3-0.8-0.5-1.2-0.6c-0.3-0.1-0.7-0.2-1.1-0.2c-0.5,0-0.9,0.1-1.2,0.3c-0.3,0.2-0.4,0.4-0.4,0.8  c0,0.2,0,0.4,0.2,0.5s0.4,0.2,0.6,0.2s0.6,0.1,1,0.1h0.1h0.1l0,0l0,0C93.4,79.4,93.9,79.5,94.3,79.6L94.3,79.6z"></path>	<path d="M106.5,76.2h1.7l-2.5,8.1h-1.2l-2-5.6l-2,5.6h-1.2l-2.5-8.1h1.7l1.4,5.7l2-5.7h1.1l2,5.7L106.5,76.2z"></path>	<path d="M114.4,76.4c0.5,0.2,0.8,0.6,1,1c0.3,0.4,0.4,1,0.4,1.6v5.2h-1.5v-0.6c-0.2,0.1-0.3,0.2-0.4,0.3c-0.2,0.1-0.4,0.2-0.7,0.3  s-0.6,0.1-0.9,0.1c-1,0-1.7-0.2-2.2-0.6s-0.7-1.1-0.7-1.9s0.2-1.4,0.7-1.8c0.4-0.4,1.1-0.6,2-0.6h2.2v-0.3c0-0.5-0.1-0.9-0.4-1.2  c-0.3-0.3-0.7-0.4-1.2-0.4c-0.3,0-0.6,0-0.9,0.1s-0.6,0.2-0.8,0.4l-1.2-0.8c0.3-0.4,0.7-0.7,1.2-0.9c0.5-0.2,1.1-0.3,1.7-0.3  C113.4,76,113.9,76.2,114.4,76.4L114.4,76.4z M114.3,80.8h-2.2c-0.4,0-0.7,0.1-0.9,0.3c-0.2,0.1-0.3,0.4-0.3,0.8s0.1,0.7,0.4,0.9  c0.2,0.2,0.6,0.3,1.2,0.3c0.7,0,1.1-0.1,1.4-0.2s0.4-0.3,0.4-0.6V80.8z"></path>	<path d="M122.8,77.2l0-1h1.6V84c0,0.7-0.1,1.4-0.4,1.9c-0.3,0.5-0.7,0.9-1.2,1.2s-1.2,0.4-1.9,0.4c-0.6,0-1.1-0.1-1.6-0.3  c-0.5-0.3-0.8-0.6-1.1-1l1.1-1c0.2,0.3,0.4,0.5,0.7,0.7c0.3,0.1,0.6,0.2,0.9,0.2c0.6,0,1.1-0.2,1.4-0.5s0.5-0.8,0.5-1.4v-1  c-0.2,0.3-0.4,0.6-0.7,0.8c-0.3,0.3-0.8,0.4-1.3,0.4c-0.6,0-1.1-0.1-1.5-0.4c-0.5-0.2-0.8-0.6-1-1.1c-0.2-0.5-0.3-1.1-0.3-1.8v-1.8  c0-0.7,0.1-1.3,0.3-1.8s0.5-0.8,0.9-1.1s0.9-0.4,1.5-0.4c0.5,0,0.9,0.2,1.3,0.4C122.3,76.6,122.6,76.9,122.8,77.2L122.8,77.2z   M122.8,79.1c0-0.4-0.1-0.7-0.2-0.9c-0.1-0.3-0.3-0.5-0.5-0.6c-0.3-0.1-0.6-0.2-0.9-0.2c-0.5,0-0.9,0.2-1.2,0.5  c-0.3,0.4-0.4,0.8-0.4,1.4v1.8c0,0.6,0.1,1.1,0.4,1.4c0.3,0.3,0.7,0.5,1.2,0.5c0.4,0,0.7-0.1,0.9-0.2c0.2-0.2,0.4-0.4,0.5-0.6  c0.1-0.3,0.2-0.6,0.2-0.9V79.1z"></path>	<path d="M131.7,76.6c0.5,0.3,0.8,0.8,1.1,1.4c0.3,0.6,0.4,1.4,0.4,2.3v0.5h-5.1c0,0.7,0.2,1.2,0.5,1.5c0.4,0.3,0.9,0.5,1.5,0.5  c0.4,0,0.7-0.1,1-0.2s0.6-0.3,0.8-0.5l1,1c-0.4,0.4-0.8,0.7-1.3,0.9c-0.5,0.2-1,0.3-1.5,0.3c-0.7,0-1.4-0.1-1.9-0.4  c-0.5-0.2-0.9-0.7-1.2-1.2c-0.3-0.6-0.4-1.2-0.4-2v-0.9c0-0.8,0.1-1.4,0.4-2c0.3-0.6,0.7-1,1.2-1.3s1.1-0.4,1.8-0.4  S131.2,76.3,131.7,76.6L131.7,76.6z M128.1,79.5h3.6c0-0.6-0.2-1.1-0.5-1.5c-0.3-0.3-0.7-0.5-1.2-0.5c-0.6,0-1.1,0.2-1.4,0.6  S128.1,79,128.1,79.5L128.1,79.5z"></path>	<path d="M141.1,76.9c0.4,0.6,0.7,1.4,0.7,2.4v4.9h-1.6v-4.9c0-0.6-0.1-1-0.4-1.3s-0.7-0.5-1.2-0.5s-0.9,0.1-1.2,0.4  c-0.3,0.3-0.4,0.7-0.4,1.2v5.1h-1.6v-8.1h1.6v1.1c0.2-0.3,0.5-0.6,0.8-0.8c0.4-0.3,0.8-0.4,1.3-0.4C139.9,76,140.6,76.3,141.1,76.9  L141.1,76.9z"></path></g></svg>